<?xml version="1.0" encoding="UTF-8" standalone="no"?>
<!DOCTYPE svg PUBLIC "-//W3C//DTD SVG 20010904//EN" "http://www.w3.org/TR/2001/REC-SVG-20010904/DTD/svg10.dtd">
<svg version="1.0" xmlns="http://www.w3.org/2000/svg" width="3091.000000pt" height="3091.000000pt" viewBox="0 0 3091.000000 3091.000000" preserveAspectRatio="xMidYMid meet">
<metadata>
Created by potrace 1.11, written by Peter Selinger 2001-2013
</metadata>
<g transform="translate(0.000000,3091.000000) scale(0.100000,-0.100000)" fill="#000000" stroke="none">
<path d="M15217 30904 c-1 -1 -67 -5 -147 -8 -80 -4 -170 -8 -200 -10 -30 -3 -91 -7 -135 -11 -44 -3 -93 -7 -110 -9 -16 -2 -57 -7 -90 -11 -33 -3 -73 -8 -90 -10 -16 -3 -51 -7 -77 -10 -69 -7 -108 -13 -268 -41 -80 -14 -154 -27 -165 -29 -139 -21 -512 -114 -765 -190 -133 -40 -526 -182 -595 -215 -11 -5 -101 -43 -199 -85 -99 -42 -263 -119 -365 -170 -201 -102 -504 -272 -509 -286 -2 -5 -8 -9 -14 -9 -13 0 -213 -132 -368 -243 -148 -107 -278 -209 -414 -326 -246 -210 -525 -489 -717 -716 -19 -22 -36 -42 -39 -45 -3 -3 -40 -48 -81 -100 -237 -298 -458 -631 -641 -965 -67 -123 -258 -515 -258 -530 0 -2 -11 -28 -24 -57 -46 -101 -125 -304 -179 -463 -30 -88 -57 -167 -60 -175 -3 -8 -7 -24 -10 -35 -3 -11 -16 -58 -30 -105 -20 -68 -56 -204 -83 -310 -28 -115 -39 -166 -64 -289 -16 -80 -31 -164 -34 -186 -4 -22 -11 -65 -16 -95 -16 -92 -21 -125 -35 -240 -3 -22 -7 -57 -10 -79 -3 -21 -7 -60 -10 -87 -2 -27 -7 -80 -11 -119 -9 -98 -12 -132 -21 -285 -10 -176 -10 -17543 0 -17765 5 -93 10 -186 12 -205 2 -19 6 -78 10 -130 3 -52 8 -111 10 -130 2 -19 7 -66 10 -105 9 -98 14 -146 19 -175 3 -14 8 -52 11 -85 6 -54 13 -110 30 -215 3 -19 10 -64 16 -100 5 -36 12 -78 15 -95 2 -16 11 -64 19 -105 8 -41 17 -86 19 -100 11 -58 46 -217 55 -247 5 -18 8 -33 6 -33 -3 0 0 -11 5 -25 5 -14 12 -36 14 -48 6 -27 38 -146 65 -242 46 -165 169 -513 225 -640 8 -16 28 -64 46 -105 37 -85 181 -366 216 -422 13 -21 24 -39 24 -42 0 -23 377 -617 431 -680 6 -6 33 -42 60 -81 88 -122 248 -320 368 -455 75 -85 440 -453 496 -500 17 -14 62 -53 101 -86 110 -94 292 -228 474 -349 188 -125 166 -111 325 -203 181 -106 372 -205 530 -277 96 -44 115 -52 220 -95 55 -23 109 -45 120 -50 114 -49 596 -204 730 -235 17 -4 37 -9 45 -11 69 -18 219 -55 235 -58 11 -2 38 -9 60 -14 22 -6 56 -14 75 -17 19 -3 51 -10 70 -15 19 -5 49 -12 65 -14 17 -3 41 -8 55 -11 14 -3 63 -12 110 -20 47 -9 105 -20 130 -25 25 -5 61 -12 80 -14 85 -12 118 -17 165 -26 28 -5 75 -12 105 -15 30 -3 62 -8 70 -10 8 -2 44 -7 80 -10 36 -4 76 -8 90 -10 14 -2 54 -7 90 -10 36 -3 79 -8 95 -10 57 -8 243 -20 465 -31 256 -13 816 -6 945 11 17 2 68 6 115 10 47 3 92 8 100 10 8 2 44 7 80 10 36 3 72 8 80 10 8 2 40 7 70 10 30 3 64 7 75 9 11 2 40 7 65 11 25 4 54 9 65 11 11 3 36 7 55 10 28 5 250 51 332 69 205 46 679 195 853 270 17 7 82 34 145 60 155 65 574 278 760 387 201 117 603 378 681 442 14 11 36 28 49 36 12 8 30 22 40 30 11 8 51 40 91 70 143 109 282 226 453 380 168 151 405 399 571 600 48 58 97 116 108 130 109 130 440 610 521 755 9 17 26 46 38 65 11 19 39 69 61 110 22 41 50 91 62 110 48 81 194 386 267 560 22 52 49 114 59 137 10 23 19 45 19 48 0 3 10 27 21 53 107 234 274 738 334 1007 2 11 11 49 20 85 9 36 19 76 21 90 3 14 16 79 29 145 13 66 26 138 30 160 3 22 10 67 15 100 20 134 20 131 35 265 4 37 14 129 20 195 16 163 20 442 20 1380 l0 1070 -2176 1 -2175 1 -1 -791 c0 -684 -5 -1023 -17 -1141 -2 -16 -7 -66 -11 -110 -4 -44 -8 -87 -10 -95 -2 -8 -6 -37 -9 -65 -22 -168 -106 -530 -143 -615 -3 -8 -7 -17 -8 -20 -1 -3 -7 -18 -14 -35 -6 -16 -17 -43 -23 -60 -76 -206 -226 -468 -384 -670 -182 -233 -509 -502 -802 -659 -56 -30 -106 -56 -110 -57 -4 -1 -34 -14 -67 -29 -107 -48 -335 -126 -335 -115 0 3 -11 0 -25 -5 -14 -5 -36 -12 -48 -14 -178 -35 -230 -45 -277 -51 -30 -4 -63 -9 -73 -11 -140 -26 -669 -25 -847 1 -14 2 -50 7 -80 10 -49 6 -145 23 -235 40 -550 109 -1013 396 -1287 801 -166 243 -317 596 -423 988 -26 95 -82 370 -90 440 -2 23 -6 50 -9 61 -2 11 -7 54 -11 95 -4 41 -9 83 -11 94 -2 10 -6 62 -9 115 -4 53 -9 112 -11 131 -5 46 -5 16111 0 16215 7 142 16 279 21 315 2 19 7 67 10 105 3 39 8 81 10 95 2 14 6 50 10 80 4 30 8 66 10 80 2 14 7 45 10 70 70 517 278 1157 485 1490 209 337 502 580 885 732 144 58 321 111 440 132 17 3 41 8 55 11 14 3 41 8 60 10 19 3 44 8 56 10 11 2 45 7 75 11 30 3 65 7 79 10 70 11 259 19 465 19 232 -1 346 -8 463 -30 15 -3 54 -10 87 -15 87 -16 245 -58 323 -87 37 -13 74 -26 82 -28 52 -12 260 -116 379 -190 220 -136 409 -307 620 -560 114 -138 283 -409 386 -620 89 -182 198 -467 219 -575 3 -14 14 -57 25 -95 11 -39 23 -86 26 -105 3 -19 8 -42 10 -50 2 -8 7 -31 10 -50 3 -19 10 -60 15 -90 12 -74 17 -112 25 -195 4 -38 9 -79 11 -89 11 -63 17 -390 17 -1063 l0 -763 2178 0 2177 0 -4 1073 c-2 589 -5 1088 -7 1107 -2 19 -7 85 -11 145 -4 61 -9 121 -11 135 -2 14 -6 59 -10 100 -8 87 -13 141 -19 179 -3 14 -8 51 -11 81 -4 30 -9 64 -11 75 -2 10 -6 37 -9 60 -11 74 -26 159 -56 315 -36 181 -31 157 -73 335 -30 122 -108 389 -156 535 -53 157 -231 621 -276 718 -13 29 -24 56 -24 61 0 4 -6 21 -14 37 -8 16 -26 56 -41 89 -95 210 -207 426 -333 648 -178 310 -463 704 -702 971 -200 224 -546 563 -714 701 -27 22 -54 45 -60 50 -83 79 -499 381 -648 470 -9 5 -70 42 -135 81 -65 38 -125 73 -133 77 -8 4 -31 17 -50 29 -39 24 -405 208 -413 208 -3 0 -38 15 -79 34 -40 18 -113 50 -163 70 -49 21 -103 43 -120 51 -149 67 -521 199 -720 254 -60 17 -123 35 -140 40 -137 44 -618 140 -825 166 -30 4 -62 9 -70 10 -22 4 -128 16 -175 20 -22 2 -74 6 -115 10 -41 3 -89 8 -106 10 -84 11 -797 28 -807 19z"/>
<path d="M19969 17446 c-2 -2 -44 -6 -92 -10 -48 -4 -93 -9 -100 -11 -7 -2 -28 -6 -47 -9 -256 -38 -555 -144 -799 -284 -91 -52 -267 -172 -321 -218 -111 -95 -142 -124 -195 -179 -231 -237 -373 -450 -513 -765 -30 -67 -88 -244 -111 -335 -27 -109 -33 -140 -46 -230 -3 -27 -8 -57 -10 -65 -6 -23 -18 -226 -18 -310 0 -76 10 -225 19 -290 42 -296 113 -529 238 -779 48 -97 129 -236 146 -251 3 -3 11 -16 18 -30 41 -80 268 -334 405 -453 83 -72 234 -187 247 -187 5 0 10 -4 10 -8 0 -5 15 -16 33 -25 17 -9 50 -28 72 -42 34 -21 245 -127 310 -155 61 -27 257 -90 328 -105 10 -2 26 -6 35 -9 9 -3 31 -8 47 -11 17 -2 41 -7 55 -10 184 -40 614 -52 764 -20 12 2 39 7 61 10 102 13 196 35 340 79 71 21 109 35 220 79 104 41 353 180 445 246 19 15 39 29 45 33 19 14 140 113 169 138 62 54 228 229 281 295 231 289 419 690 479 1020 18 97 33 196 41 275 6 56 6 361 0 415 -22 210 -44 323 -97 500 -36 117 -74 217 -130 335 -46 97 -147 273 -160 278 -4 2 -8 8 -8 13 0 6 -19 36 -42 67 -230 315 -520 567 -849 739 -76 40 -286 132 -317 138 -9 2 -37 11 -62 20 -86 31 -291 78 -395 90 -27 4 -61 9 -75 11 -30 6 -415 15 -421 10z"/>
</g>
</svg>